<mxfile host="app.diagrams.net" agent="Mozilla/5.0 (Windows NT 10.0; Win64; x64) AppleWebKit/537.36 (KHTML, like Gecko) Chrome/127.0.0.0 Safari/537.36" version="24.7.7">
  <diagram name="Страница — 1" id="ENI6WTY6g6m-EQkSX-Ta">
    <mxGraphModel dx="2514" dy="918" grid="1" gridSize="10" guides="1" tooltips="1" connect="1" arrows="1" fold="1" page="1" pageScale="1" pageWidth="827" pageHeight="1169" math="0" shadow="0">
      <root>
        <mxCell id="0" />
        <mxCell id="1" parent="0" />
        <mxCell id="lb4tPSTKW-BmQOv7Y4hm-1" value="&lt;font style=&quot;font-size: 24px;&quot;&gt;Mapa de la pagina (Vistas)&lt;/font&gt;" style="rounded=0;whiteSpace=wrap;html=1;" vertex="1" parent="1">
          <mxGeometry x="270" y="240" width="340" height="150" as="geometry" />
        </mxCell>
        <mxCell id="lb4tPSTKW-BmQOv7Y4hm-2" value="&lt;font style=&quot;font-size: 18px;&quot;&gt;Login&lt;/font&gt;" style="rounded=1;whiteSpace=wrap;html=1;" vertex="1" parent="1">
          <mxGeometry x="297" y="485" width="206" height="100" as="geometry" />
        </mxCell>
        <mxCell id="lb4tPSTKW-BmQOv7Y4hm-3" value="&lt;font style=&quot;font-size: 18px;&quot;&gt;SignUp&lt;/font&gt;" style="rounded=1;whiteSpace=wrap;html=1;" vertex="1" parent="1">
          <mxGeometry x="790" y="485" width="200" height="100" as="geometry" />
        </mxCell>
        <mxCell id="lb4tPSTKW-BmQOv7Y4hm-4" value="&lt;font style=&quot;font-size: 18px;&quot;&gt;Home&lt;/font&gt;" style="rounded=1;whiteSpace=wrap;html=1;" vertex="1" parent="1">
          <mxGeometry x="50" y="485" width="200" height="100" as="geometry" />
        </mxCell>
        <mxCell id="lb4tPSTKW-BmQOv7Y4hm-5" value="&lt;font style=&quot;font-size: 18px;&quot;&gt;Perfil de Usuario&lt;/font&gt;" style="rounded=1;whiteSpace=wrap;html=1;" vertex="1" parent="1">
          <mxGeometry x="-200" y="480" width="200" height="100" as="geometry" />
        </mxCell>
        <mxCell id="lb4tPSTKW-BmQOv7Y4hm-6" value="&lt;font style=&quot;font-size: 18px;&quot;&gt;Receta&lt;/font&gt;" style="rounded=1;whiteSpace=wrap;html=1;" vertex="1" parent="1">
          <mxGeometry x="1041" y="485" width="200" height="100" as="geometry" />
        </mxCell>
        <mxCell id="lb4tPSTKW-BmQOv7Y4hm-7" value="&lt;font style=&quot;font-size: 18px;&quot;&gt;Recetas Favoritos&lt;/font&gt;" style="rounded=1;whiteSpace=wrap;html=1;" vertex="1" parent="1">
          <mxGeometry x="550" y="485" width="200" height="100" as="geometry" />
        </mxCell>
      </root>
    </mxGraphModel>
  </diagram>
</mxfile>
